<?xml version="1.0" standalone="no"?>
<!DOCTYPE svg PUBLIC "-//W3C//DTD SVG 20010904//EN"
 "http://www.w3.org/TR/2001/REC-SVG-20010904/DTD/svg10.dtd">
<svg version="1.0" xmlns="http://www.w3.org/2000/svg"
 width="241.000000pt" height="241.000000pt" viewBox="0 0 241.000000 241.000000"
 preserveAspectRatio="xMidYMid meet">
<metadata>
Created by potrace 1.11, written by Peter Selinger 2001-2013
</metadata>
<g transform="translate(0.000000,241.000000) scale(0.100000,-0.100000)"
fill="#000000" stroke="none">
<path d="M313 1870 c-58 -14 -121 -67 -154 -132 -17 -33 -19 -61 -19 -257 0
-267 9 -301 99 -392 88 -88 95 -89 488 -89 l333 0 0 -70 0 -70 -460 0 -460 0
0 -154 c0 -84 3 -168 6 -185 l6 -31 587 0 c556 0 589 1 624 19 29 15 37 16 37
5 0 -12 67 -14 412 -14 l411 0 34 26 c62 47 68 70 66 247 -1 89 -7 173 -13
193 -17 51 -65 102 -108 114 -21 5 -146 10 -280 10 l-243 0 3 48 3 47 293 3
292 2 0 119 c0 66 -3 126 -6 135 -5 14 -48 16 -381 16 -406 0 -401 1 -454 -57
-15 -15 -32 -45 -39 -65 -6 -21 -13 -38 -14 -38 -2 0 -18 8 -37 18 -30 15 -75
17 -401 20 l-368 3 0 69 0 70 425 0 425 0 0 180 c0 113 -4 180 -10 180 -5 0
-10 9 -10 20 0 20 -6 20 -527 19 -291 -1 -543 -4 -560 -9z m1465 -1017 l242
-4 0 -44 0 -45 -265 0 -265 0 0 56 c0 54 1 56 23 48 12 -4 131 -9 265 -11z"/>
</g>
</svg>
