<svg id="Layer_1" data-name="Layer 1" xmlns="http://www.w3.org/2000/svg" xmlns:xlink="http://www.w3.org/1999/xlink" viewBox="0 0 1920 1080"><defs><style>.cls-1{fill:none;}.cls-2{clip-path:url(#clip-path);}.cls-3{fill:#98dfea;}.cls-4{fill:#07beb8;}.cls-5{fill:#f8f4eb;}</style><clipPath id="clip-path"><rect class="cls-1" x="3" width="1619.83" height="1080"/></clipPath></defs><title>Artboard 1</title><g class="cls-2"><path class="cls-3" d="M721,126.4c-17.09,34.9-66,43.34-97.94,22.74-22.19-14.3-37.54-39.14-61.55-49.81C546,92.45,528.61,92.29,512,89c-34.81-6.88-66.26-29.13-86.63-59.12C420.11,22.08,413.51,11,409.71,0H723.94q2,31.58,4,63.2C729.24,84.62,730.35,107.28,721,126.4Z"/><path class="cls-4" d="M257.78,250c-19.22,20.81-50.39,22.62-78,20.31A430.27,430.27,0,0,1,3,215.23V0H213.4c34.81,45.61,50.87,103.78,59.33,161.42C277.2,192.15,278.46,227.54,257.78,250Z"/></g><path class="cls-5" d="M1923,0V463.25c-131.24,108-276.81,196.4-435.11,251.32-42.09,14.63-85.52,26.9-129.9,27.52s-90.15-11.37-124.32-40.83c-48.1-41.45-66.1-116.72-42.28-176.83,22.15-55.91,72.9-92.53,114.83-134.39s78.68-102.26,60.76-159.81c-8-25.58-25.67-46.35-39.32-69.17C1299.33,113.59,1289,55,1298.38,0Z"/><path class="cls-4" d="M1865.91,0c-21.12,29.21-55.89,48.29-91.18,46.1-29.9-1.85-59-16.85-88.6-12.36-19.86,3-37.5,14.5-56.8,20.19a101.48,101.48,0,0,1-83.9-12.77A107.28,107.28,0,0,1,1509.36,0Z"/></svg>